<?xml version="1.0" encoding="UTF-8"?>
<svg version="1.1" xmlns="http://www.w3.org/2000/svg" width="512" height="512">
<path d="M0 0 C1.47959198 -0.01007584 1.47959198 -0.01007584 2.98907471 -0.02035522 C6.2282829 -0.03925247 9.4672832 -0.04325446 12.70654297 -0.04541016 C14.96760136 -0.05184102 17.22865892 -0.0585696 19.48971558 -0.06558228 C24.2187493 -0.07753228 28.94771007 -0.08126516 33.67675781 -0.08007812 C39.73402889 -0.07987442 45.79083351 -0.10723998 51.84799385 -0.14162254 C56.5131546 -0.16385779 61.17820217 -0.16791679 65.84341049 -0.16685867 C68.07691947 -0.16921727 70.31043144 -0.17805529 72.54388809 -0.19352341 C75.66500941 -0.21312576 78.78511218 -0.20736878 81.90625 -0.1953125 C82.82588531 -0.20655151 83.74552063 -0.21779053 84.69302368 -0.22937012 C90.24576899 -0.17488398 93.41896533 0.58727543 97.82373047 4.29052734 C101.4520671 8.10982906 102.13373505 11.17331741 102.32373047 16.29052734 C102.13373505 21.40773728 101.4520671 24.47122562 97.82373047 28.29052734 C92.78369818 32.41808785 89.18705532 32.86735737 82.94775391 32.8046875 C81.63917168 32.81537514 81.63917168 32.81537514 80.30415344 32.82627869 C77.43023863 32.84552073 74.55706313 32.83728508 71.68310547 32.82958984 C69.67538383 32.83950236 67.66767128 32.85144571 65.65997314 32.86532593 C60.37677142 32.89767917 55.09377686 32.90807785 49.81048584 32.91217041 C41.36936529 32.92092494 32.92841511 32.95665214 24.48743439 33.00434494 C21.55061884 33.01685549 18.61402165 33.016178 15.67718506 33.0140686 C13.85721677 33.02065589 12.03724994 33.02766351 10.21728516 33.03515625 C9.41174698 33.03103226 8.6062088 33.02690826 7.77626038 33.0226593 C-2.0755894 33.09146244 -10.65248563 34.59941518 -18.17626953 41.29052734 C-24.91029404 48.94432106 -25.48169267 58.90743345 -25.43164062 68.68408203 C-25.4370713 70.00317818 -25.4370713 70.00317818 -25.44261169 71.34892273 C-25.44945042 73.23835979 -25.45202163 75.12781637 -25.45066452 77.01726532 C-25.44969133 80.01068794 -25.46273178 83.0037593 -25.47964478 85.99713135 C-25.52569836 94.50066511 -25.55054178 103.00415805 -25.55712891 111.5078125 C-25.56214373 116.72607084 -25.58638006 121.94395494 -25.6224556 127.16208649 C-25.63224246 129.14435835 -25.63459163 131.12668172 -25.62928391 133.10897064 C-25.62221134 135.87790559 -25.6394954 138.64572161 -25.66210938 141.41455078 C-25.65393692 142.22818588 -25.64576447 143.04182098 -25.63734436 143.88011169 C-25.7137695 149.14604501 -26.73476342 152.08821416 -30.17626953 156.29052734 C-33.99557125 159.91886398 -37.05905959 160.60053193 -42.17626953 160.79052734 C-47.29347947 160.60053193 -50.35696781 159.91886398 -54.17626953 156.29052734 C-58.57239213 151.04649176 -58.75192899 146.99282719 -58.69384766 140.45239258 C-58.70085693 139.47753403 -58.70786621 138.50267548 -58.71508789 137.49827576 C-58.73266259 134.28159921 -58.72104013 131.06580635 -58.70751953 127.84912109 C-58.71021611 125.60197278 -58.71409991 123.35482561 -58.71911621 121.10768127 C-58.72501186 116.39597473 -58.71645149 111.68457162 -58.69775391 106.97290039 C-58.67505662 100.9632879 -58.68802881 94.95439367 -58.71204376 88.94480801 C-58.72657841 84.30077319 -58.72185915 79.65690523 -58.71153259 75.01286507 C-58.70888166 72.79911271 -58.71207693 70.58534474 -58.72145081 68.37161064 C-58.78808689 48.19757207 -56.04246661 31.82534399 -41.59033203 16.57568359 C-29.9008592 5.51040591 -15.9625151 -0.01580186 0 0 Z " fill="#000000" transform="translate(106.17626953125,47.70947265625)"/>
<path d="M0 0 C4.96586503 2.30558019 7.41512248 5.22395147 10 10 C10.56957698 13.2835653 10.54711631 16.51189252 10.51757812 19.83813477 C10.5245874 20.81299332 10.53159668 21.78785187 10.53881836 22.79225159 C10.55639306 26.00892814 10.54477059 29.22472099 10.53125 32.44140625 C10.53394658 34.68855456 10.53783037 36.93570174 10.54284668 39.18284607 C10.54874233 43.89455261 10.54018196 48.60595572 10.52148438 53.31762695 C10.49878709 59.32723944 10.51175928 65.33613367 10.53577423 71.34571934 C10.55030888 75.98975416 10.54558962 80.63362211 10.53526306 85.27766228 C10.53261213 87.49141463 10.5358074 89.7051826 10.54518127 91.9189167 C10.61367045 112.65397757 7.55863147 128.89979927 -7.30078125 144.4921875 C-18.73948526 155.11975331 -32.473849 160.13241242 -47.83569336 160.17700195 C-48.82164993 160.18357315 -49.80760651 160.19014435 -50.82344055 160.19691467 C-54.07890911 160.21659053 -57.33433174 160.22829506 -60.58984375 160.23828125 C-62.25971438 160.24439454 -62.25971438 160.24439454 -63.96331978 160.25063133 C-69.85111428 160.27146362 -75.73888564 160.28577993 -81.62670898 160.29516602 C-87.70757928 160.30624895 -93.78808553 160.34067896 -99.86882687 160.38033772 C-104.54684636 160.4064669 -109.2247784 160.41485438 -113.90286446 160.41844749 C-116.14475538 160.4233198 -118.38664223 160.434952 -120.62846184 160.45348549 C-123.76424094 160.47780671 -126.89906776 160.47692493 -130.03491211 160.4699707 C-131.42143478 160.48918579 -131.42143478 160.48918579 -132.83596802 160.50878906 C-138.40374366 160.46379529 -141.58495852 159.71799846 -146 156 C-149.62833663 152.18069828 -150.31000458 149.11720994 -150.5 144 C-150.31000458 138.88279006 -149.62833663 135.81930172 -146 132 C-140.95996771 127.87243949 -137.36332485 127.42316997 -131.12402344 127.48583984 C-130.25163528 127.47871475 -129.37924713 127.47158966 -128.48042297 127.46424866 C-125.60650816 127.44500662 -122.73333266 127.45324226 -119.859375 127.4609375 C-117.85165336 127.45102498 -115.84394081 127.43908163 -113.83624268 127.42520142 C-108.55304095 127.39284817 -103.27004639 127.38244949 -97.98675537 127.37835693 C-89.54563482 127.3696024 -81.10468464 127.33387521 -72.66370392 127.2861824 C-69.72688837 127.27367185 -66.79029119 127.27434934 -63.85345459 127.27645874 C-62.0334863 127.26987146 -60.21351947 127.26286383 -58.39355469 127.25537109 C-57.58801651 127.25949509 -56.78247833 127.26361908 -55.95252991 127.26786804 C-46.10068013 127.1990649 -37.5237839 125.69111216 -30 119 C-23.26597549 111.34620629 -22.69457687 101.38309389 -22.74462891 91.60644531 C-22.74100845 90.72704788 -22.737388 89.84765045 -22.73365784 88.94160461 C-22.72681911 87.05216755 -22.7242479 85.16271097 -22.72560501 83.27326202 C-22.7265782 80.2798394 -22.71353776 77.28676804 -22.69662476 74.293396 C-22.65057117 65.78986223 -22.62572775 57.28636929 -22.61914062 48.78271484 C-22.6141258 43.5644565 -22.58988947 38.34657241 -22.55381393 33.12844086 C-22.54402707 31.14616899 -22.5416779 29.16384562 -22.54698563 27.1815567 C-22.55405819 24.41262175 -22.53677413 21.64480574 -22.51416016 18.87597656 C-22.52641884 17.65552391 -22.52641884 17.65552391 -22.53892517 16.41041565 C-22.46250003 11.14448233 -21.44150611 8.20231318 -18 4 C-12.72867143 -1.00776214 -6.89190982 -0.92775709 0 0 Z " fill="#000000" transform="translate(454,304)"/>
<path d="M0 0 C4.96799019 2.30656687 7.38106851 5.24443386 10 10 C10.55639536 12.96586022 10.54440453 15.86490062 10.51416016 18.87597656 C10.52128525 19.74836472 10.52841034 20.62075287 10.53575134 21.51957703 C10.55499338 24.39349184 10.54675774 27.26666734 10.5390625 30.140625 C10.54897502 32.14834664 10.56091837 34.15605919 10.57479858 36.16375732 C10.60715183 41.44695905 10.61755051 46.72995361 10.62164307 52.01324463 C10.6303976 60.45436518 10.66612479 68.89531536 10.7138176 77.33629608 C10.72632815 80.27311163 10.72565066 83.20970881 10.72354126 86.14654541 C10.73012854 87.9665137 10.73713617 89.78648053 10.74462891 91.60644531 C10.73844292 92.81475258 10.73844292 92.81475258 10.73213196 94.04747009 C10.8009351 103.89931987 12.30888784 112.4762161 19 120 C26.65379371 126.73402451 36.61690611 127.30542313 46.39355469 127.25537109 C47.27295212 127.25899155 48.15234955 127.262612 49.05839539 127.26634216 C50.94783245 127.27318089 52.83728903 127.2757521 54.72673798 127.27439499 C57.7201606 127.2734218 60.71323196 127.28646224 63.706604 127.30337524 C72.21013777 127.34942883 80.71363071 127.37427225 89.21728516 127.38085938 C94.4355435 127.3858742 99.65342759 127.41011053 104.87155914 127.44618607 C106.85383101 127.45597293 108.83615438 127.4583221 110.8184433 127.45301437 C113.58737825 127.44594181 116.35519426 127.46322587 119.12402344 127.48583984 C119.93765854 127.47766739 120.75129364 127.46949493 121.58958435 127.46107483 C126.85551767 127.53749997 129.79768682 128.55849389 134 132 C137.62833663 135.81930172 138.31000458 138.88279006 138.5 144 C138.31000458 149.11720994 137.62833663 152.18069828 134 156 C128.75596442 160.3961226 124.70229985 160.57565946 118.16186523 160.51757812 C117.18700668 160.5245874 116.21214813 160.53159668 115.20774841 160.53881836 C111.99107186 160.55639306 108.77527901 160.54477059 105.55859375 160.53125 C103.31144544 160.53394658 101.06429826 160.53783037 98.81715393 160.54284668 C94.10544739 160.54874233 89.39404428 160.54018196 84.68237305 160.52148438 C78.67276056 160.49878709 72.66386633 160.51175928 66.65428066 160.53577423 C62.01024584 160.55030888 57.36637789 160.54558962 52.72233772 160.53526306 C50.50858537 160.53261213 48.2948174 160.5358074 46.0810833 160.54518127 C25.34602243 160.61367045 9.10020073 157.55863147 -6.4921875 142.69921875 C-17.11975331 131.26051474 -22.13241242 117.526151 -22.17700195 102.16430664 C-22.18357315 101.17835007 -22.19014435 100.19239349 -22.19691467 99.17655945 C-22.21659053 95.92109089 -22.22829506 92.66566826 -22.23828125 89.41015625 C-22.24235678 88.29690916 -22.2464323 87.18366207 -22.25063133 86.03668022 C-22.27146362 80.14888572 -22.28577993 74.26111436 -22.29516602 68.37329102 C-22.30624895 62.29242072 -22.34067896 56.21191447 -22.38033772 50.13117313 C-22.4064669 45.45315364 -22.41485438 40.7752216 -22.41844749 36.09713554 C-22.4233198 33.85524462 -22.434952 31.61335777 -22.45348549 29.37153816 C-22.47780671 26.23575906 -22.47692493 23.10093224 -22.4699707 19.96508789 C-22.48278076 19.04073944 -22.49559082 18.11639099 -22.50878906 17.16403198 C-22.46379529 11.59625634 -21.71799846 8.41504148 -18 4 C-12.72867143 -1.00776214 -6.89190982 -0.92775709 0 0 Z " fill="#000000" transform="translate(70,304)"/>
<path d="M0 0 C0.97485855 -0.00700928 1.9497171 -0.01401855 2.95411682 -0.02124023 C6.17079337 -0.03881494 9.38658623 -0.02719247 12.60327148 -0.01367188 C14.8504198 -0.01636845 17.09756697 -0.02025225 19.3447113 -0.02526855 C24.05641784 -0.03116421 28.76782096 -0.02260384 33.47949219 -0.00390625 C39.48910468 0.01879103 45.49799891 0.00581884 51.50758457 -0.01819611 C56.15161939 -0.03273076 60.79548734 -0.0280115 65.43952751 -0.01768494 C67.65327987 -0.015034 69.86704784 -0.01822928 72.08078194 -0.02760315 C83.75067546 -0.06614952 94.25184052 -0.09237827 105.16186523 4.51757812 C105.92394791 4.82852417 106.68603058 5.13947021 107.47120667 5.45983887 C119.68767481 10.71377273 128.59422882 20.94363828 134.47436523 32.51757812 C134.81226074 33.18208984 135.15015625 33.84660156 135.49829102 34.53125 C139.37497025 42.51622779 140.46187068 49.88942869 140.46826172 58.67797852 C140.47658524 59.66276688 140.48490875 60.64755524 140.4934845 61.66218567 C140.51745438 64.89657614 140.52633857 68.13076469 140.53295898 71.36523438 C140.54193176 73.62389687 140.55105372 75.88255878 140.56031799 78.14122009 C140.57677269 82.86605267 140.5845023 87.59081466 140.58740234 92.31567383 C140.59279743 98.36396998 140.63053974 104.41160189 140.67614651 110.45971012 C140.70590499 115.12062503 140.71312557 119.78137925 140.71412849 124.44238091 C140.71832936 126.67228695 140.7307582 128.90219353 140.75164604 131.13200569 C140.77854803 134.25069224 140.77373899 137.36782835 140.76123047 140.48657227 C140.7834819 141.86063232 140.7834819 141.86063232 140.80618286 143.26245117 C140.73381925 149.60899035 139.36610743 152.73213193 135.16186523 157.51757812 C130.21306022 161.08532128 125.06163558 161.34971689 119.16186523 160.51757812 C113.79855093 158.71623727 110.81061113 155.42956734 108.16186523 150.51757812 C107.60899744 147.55091803 107.61745826 144.65292083 107.64770508 141.64160156 C107.64057999 140.76921341 107.6334549 139.89682526 107.62611389 138.9980011 C107.60687185 136.12408629 107.6151075 133.25091079 107.62280273 130.37695312 C107.61289022 128.36923148 107.60094686 126.36151893 107.58706665 124.3538208 C107.55471341 119.07061908 107.54431472 113.78762452 107.54022217 108.5043335 C107.53146764 100.06321295 107.49574044 91.62226276 107.44804764 83.18128204 C107.43553709 80.2444665 107.43621458 77.30786931 107.43832397 74.37103271 C107.43173669 72.55106443 107.42472907 70.7310976 107.41723633 68.91113281 C107.42136032 68.10559464 107.42548431 67.30005646 107.42973328 66.47010803 C107.36093014 56.61825826 105.8529774 48.04136202 99.16186523 40.51757812 C91.50807152 33.78355361 81.54495913 33.21215499 71.76831055 33.26220703 C70.88891312 33.25858658 70.00951569 33.25496613 69.10346985 33.25123596 C67.21403279 33.24439724 65.32457621 33.24182603 63.43512726 33.24318314 C60.44170464 33.24415632 57.44863328 33.23111588 54.45526123 33.21420288 C45.95172746 33.1681493 37.44823453 33.14330587 28.94458008 33.13671875 C23.72632173 33.13170393 18.50843764 33.10746759 13.29030609 33.07139206 C11.30803423 33.06160519 9.32571086 33.05925602 7.34342194 33.06456375 C4.57448699 33.07163631 1.80667097 33.05435225 -0.9621582 33.03173828 C-1.7757933 33.03991074 -2.58942841 33.04808319 -3.42771912 33.0565033 C-8.69365244 32.98007815 -11.63582158 31.95908424 -15.83813477 28.51757812 C-19.4664714 24.6982764 -20.14813935 21.63478806 -20.33813477 16.51757812 C-20.14813935 11.40036819 -19.4664714 8.33687985 -15.83813477 4.51757812 C-10.59409918 0.12145552 -6.54043462 -0.05808133 0 0 Z " fill="#000000" transform="translate(323.838134765625,47.482421875)"/>
</svg>
