<?xml version="1.0" encoding="UTF-8"?>
<svg version="1.1" xmlns="http://www.w3.org/2000/svg" width="512" height="512">
<path d="M0 0 C1.37045026 -0.00542487 2.74089468 -0.01254958 4.11132812 -0.02124023 C7.82214736 -0.03943355 11.53252041 -0.0324229 15.24334717 -0.01972389 C19.13229549 -0.00957537 23.02120638 -0.0189947 26.91015625 -0.02526855 C33.44017372 -0.03253959 39.97001005 -0.02297163 46.5 -0.00390625 C54.04255185 0.01786159 61.58467116 0.01080982 69.12721252 -0.01121187 C75.61063837 -0.02938147 82.09393423 -0.03191662 88.57737732 -0.0214572 C92.44635098 -0.01523078 96.31512153 -0.01436299 100.18408203 -0.02760315 C103.82206402 -0.03918392 107.45949 -0.03109613 111.09741211 -0.00802612 C113.06428265 -0.00024035 115.03120039 -0.01207597 116.99804688 -0.02453613 C127.73721866 0.0783295 127.73721866 0.0783295 132.5625 4.51757812 C136.19083663 8.33687985 136.87250458 11.40036819 137.0625 16.51757812 C136.87250458 21.63478806 136.19083663 24.6982764 132.5625 28.51757812 C127.07381373 33.32608356 122.14076395 33.06594978 115.04931641 32.97167969 C113.89751892 32.97226379 112.74572144 32.9728479 111.559021 32.97344971 C107.76039258 32.97066796 103.96255347 32.9395698 100.1640625 32.90820312 C97.52705311 32.90074111 94.89003816 32.89504799 92.25302124 32.89105225 C86.02695855 32.87863975 79.80117815 32.84584193 73.57523954 32.80565429 C66.48458603 32.76088247 59.39391876 32.73893601 52.303159 32.71887255 C37.72279398 32.67710749 23.14265094 32.60678931 8.5625 32.51757812 C8.56618717 33.12018778 8.56987434 33.72279743 8.57367325 34.34366798 C8.66206793 49.0165739 8.72823081 63.68946406 8.76974869 78.36257362 C8.79036092 85.45844723 8.81845559 92.55414293 8.86425781 99.64990234 C8.90843318 106.49689801 8.93163385 113.34370866 8.94200897 120.19083786 C8.94940336 122.80394781 8.96384268 125.41704757 8.98542023 128.03007889 C9.01442977 131.68840702 9.01845684 135.34597 9.01660156 139.00439453 C9.03098267 140.08621002 9.04536377 141.16802551 9.06018066 142.28262329 C9.02674795 148.36958233 8.62209227 151.88374155 4.5625 156.51757812 C0.74319828 160.14591476 -2.32029006 160.82758271 -7.4375 161.01757812 C-12.55470994 160.82758271 -15.61819828 160.14591476 -19.4375 156.51757812 C-24.73016235 150.76467104 -24.00261592 144.58395415 -23.95507812 137.08007812 C-23.960503 135.70962787 -23.96762771 134.33918344 -23.97631836 132.96875 C-23.99451167 129.25793077 -23.98750102 125.54755772 -23.97480202 121.83673096 C-23.96465349 117.94778264 -23.97407283 114.05887174 -23.98034668 110.16992188 C-23.98761772 103.63990441 -23.97804976 97.11006807 -23.95898438 90.58007812 C-23.93721654 83.03752628 -23.9442683 75.49540697 -23.96629 67.9528656 C-23.98445959 61.46943975 -23.98699474 54.98614389 -23.97653532 48.50270081 C-23.97030891 44.63372714 -23.96944111 40.76495659 -23.98268127 36.89599609 C-23.99426204 33.25801411 -23.98617426 29.62058813 -23.96310425 25.98266602 C-23.95531847 24.01579547 -23.96715409 22.04887774 -23.97961426 20.08203125 C-23.87425167 9.08217742 -23.87425167 9.08217742 -19.4375 4.51757812 C-13.86738301 -0.8965282 -7.3010497 -0.04625287 0 0 Z " fill="#000000" transform="translate(327.4375,303.482421875)"/>
<path d="M0 0 C1.37045026 -0.00542487 2.74089468 -0.01254958 4.11132812 -0.02124023 C7.82214736 -0.03943355 11.53252041 -0.0324229 15.24334717 -0.01972389 C19.13229549 -0.00957537 23.02120638 -0.0189947 26.91015625 -0.02526855 C33.44017372 -0.03253959 39.97001005 -0.02297163 46.5 -0.00390625 C54.04255185 0.01786159 61.58467116 0.01080982 69.12721252 -0.01121187 C75.61063837 -0.02938147 82.09393423 -0.03191662 88.57737732 -0.0214572 C92.44635098 -0.01523078 96.31512153 -0.01436299 100.18408203 -0.02760315 C103.82206402 -0.03918392 107.45949 -0.03109613 111.09741211 -0.00802612 C113.06428265 -0.00024035 115.03120039 -0.01207597 116.99804688 -0.02453613 C127.99790071 0.08082645 127.99790071 0.08082645 132.5625 4.51757812 C137.97660632 10.08769512 137.12633099 16.65402843 137.08007812 23.95507812 C137.085503 25.32552838 137.09262771 26.69597281 137.10131836 28.06640625 C137.11951167 31.77722548 137.11250102 35.48759853 137.09980202 39.19842529 C137.08965349 43.08737361 137.09907283 46.97628451 137.10534668 50.86523438 C137.11261772 57.39525184 137.10304976 63.92508818 137.08398438 70.45507812 C137.06221654 77.99762997 137.0692683 85.53974928 137.09129 93.08229065 C137.10945959 99.5657165 137.11199474 106.04901236 137.10153532 112.53245544 C137.09530891 116.40142911 137.09444111 120.27019966 137.10768127 124.13916016 C137.11926204 127.77714214 137.11117426 131.41456812 137.08810425 135.05249023 C137.08031847 137.01936078 137.09215409 138.98627851 137.10461426 140.953125 C137.00174863 151.69229678 137.00174863 151.69229678 132.5625 156.51757812 C128.74319828 160.14591476 125.67970994 160.82758271 120.5625 161.01757812 C115.44529006 160.82758271 112.38180172 160.14591476 108.5625 156.51757812 C103.75399457 151.02889185 104.01412835 146.09584208 104.10839844 139.00439453 C104.10781433 137.85259705 104.10723022 136.70079956 104.10662842 135.51409912 C104.10941016 131.71547071 104.14050833 127.9176316 104.171875 124.11914062 C104.17933702 121.48213123 104.18503013 118.84511629 104.18902588 116.20809937 C104.20143837 109.98203667 104.23423619 103.75625628 104.27442384 97.53031766 C104.31919566 90.43966416 104.34114212 83.34899688 104.36120558 76.25823712 C104.40297064 61.67787211 104.47328881 47.09772907 104.5625 32.51757812 C103.65858552 32.52310888 103.65858552 32.52310888 102.73641014 32.52875137 C88.06350423 32.61714605 73.39061406 32.68330893 58.7175045 32.72482681 C51.6216309 32.74543904 44.52593519 32.77353371 37.43017578 32.81933594 C30.58318012 32.8635113 23.73636946 32.88671197 16.88924026 32.8970871 C14.27613032 32.90448149 11.66303056 32.91892081 9.04999924 32.94049835 C5.3916711 32.96950789 1.73410813 32.97353497 -1.92431641 32.97167969 C-3.0061319 32.98606079 -4.08794739 33.00044189 -5.20254517 33.01525879 C-11.2895042 32.98182607 -14.80366342 32.57717039 -19.4375 28.51757812 C-23.06583663 24.6982764 -23.74750458 21.63478806 -23.9375 16.51757812 C-23.74750458 11.40036819 -23.06583663 8.33687985 -19.4375 4.51757812 C-13.68459292 -0.77508423 -7.50387603 -0.04753779 0 0 Z " fill="#000000" transform="translate(71.4375,303.482421875)"/>
<path d="M0 0 C4.65373756 2.16066387 7.97652896 5.24248699 10 10 C10.5678391 13.84040075 10.50562416 17.63740727 10.45410156 21.51318359 C10.45468567 22.66498108 10.45526978 23.81677856 10.45587158 25.003479 C10.45308984 28.80210742 10.42199167 32.59994653 10.390625 36.3984375 C10.38316298 39.03544689 10.37746987 41.67246184 10.37347412 44.30947876 C10.36106163 50.53554145 10.32826381 56.76132185 10.28807616 62.98726046 C10.24330434 70.07791397 10.22135788 77.16858124 10.20129442 84.259341 C10.15952936 98.83970602 10.08921119 113.41984906 10 128 C10.90391448 127.99446924 10.90391448 127.99446924 11.82608986 127.98882675 C26.49899577 127.90043207 41.17188594 127.83426919 55.8449955 127.79275131 C62.9408691 127.77213908 70.03656481 127.74404441 77.13232422 127.69824219 C83.97931988 127.65406682 90.82613054 127.63086615 97.67325974 127.62049103 C100.28636968 127.61309664 102.89946944 127.59865732 105.51250076 127.57707977 C109.1708289 127.54807023 112.82839187 127.54404316 116.48681641 127.54589844 C117.5686319 127.53151733 118.65044739 127.51713623 119.76504517 127.50231934 C125.8520042 127.53575205 129.36616342 127.94040773 134 132 C137.62833663 135.81930172 138.31000458 138.88279006 138.5 144 C138.31000458 149.11720994 137.62833663 152.18069828 134 156 C128.24709292 161.29266235 122.06637603 160.56511592 114.5625 160.51757812 C113.19204974 160.523003 111.82160532 160.53012771 110.45117188 160.53881836 C106.74035264 160.55701167 103.02997959 160.55000102 99.31915283 160.53730202 C95.43020451 160.52715349 91.54129362 160.53657283 87.65234375 160.54284668 C81.12232628 160.55011772 74.59248995 160.54054976 68.0625 160.52148438 C60.51994815 160.49971654 52.97782884 160.5067683 45.43528748 160.52879 C38.95186163 160.54695959 32.46856577 160.54949474 25.98512268 160.53903532 C22.11614902 160.53280891 18.24737847 160.53194111 14.37841797 160.54518127 C10.74043598 160.55676204 7.10301 160.54867426 3.46508789 160.52560425 C1.49821735 160.51781847 -0.46870039 160.52965409 -2.43554688 160.54211426 C-13.43540071 160.43675167 -13.43540071 160.43675167 -18 156 C-23.41410632 150.42988301 -22.56383099 143.8635497 -22.51757812 136.5625 C-22.523003 135.19204974 -22.53012771 133.82160532 -22.53881836 132.45117188 C-22.55701167 128.74035264 -22.55000102 125.02997959 -22.53730202 121.31915283 C-22.52715349 117.43020451 -22.53657283 113.54129362 -22.54284668 109.65234375 C-22.55011772 103.12232628 -22.54054976 96.59248995 -22.52148438 90.0625 C-22.49971654 82.51994815 -22.5067683 74.97782884 -22.52879 67.43528748 C-22.54695959 60.95186163 -22.54949474 54.46856577 -22.53903532 47.98512268 C-22.53280891 44.11614902 -22.53194111 40.24737847 -22.54518127 36.37841797 C-22.55676204 32.74043598 -22.54867426 29.10301 -22.52560425 25.46508789 C-22.51781847 23.49821735 -22.52965409 21.53129961 -22.54211426 19.56445312 C-22.43924863 8.82528134 -22.43924863 8.82528134 -18 4 C-12.72867143 -1.00776214 -6.89190982 -0.92775709 0 0 Z " fill="#000000" transform="translate(326,48)"/>
<path d="M0 0 C4.64273557 2.1555558 8.06660406 5.20452111 10 10 C10.60035632 14.4767811 10.54615684 18.92632897 10.51757812 23.4375 C10.523003 24.80795026 10.53012771 26.17839468 10.53881836 27.54882812 C10.55701167 31.25964736 10.55000102 34.97002041 10.53730202 38.68084717 C10.52715349 42.56979549 10.53657283 46.45870638 10.54284668 50.34765625 C10.55011772 56.87767372 10.54054976 63.40751005 10.52148438 69.9375 C10.49971654 77.48005185 10.5067683 85.02217116 10.52879 92.56471252 C10.54695959 99.04813837 10.54949474 105.53143423 10.53903532 112.01487732 C10.53280891 115.88385098 10.53194111 119.75262153 10.54518127 123.62158203 C10.55676204 127.25956402 10.54867426 130.89699 10.52560425 134.53491211 C10.51781847 136.50178265 10.52965409 138.46870039 10.54211426 140.43554688 C10.43675167 151.43540071 10.43675167 151.43540071 6 156 C0.42988301 161.41410632 -6.1364503 160.56383099 -13.4375 160.51757812 C-14.80795026 160.523003 -16.17839468 160.53012771 -17.54882812 160.53881836 C-21.25964736 160.55701167 -24.97002041 160.55000102 -28.68084717 160.53730202 C-32.56979549 160.52715349 -36.45870638 160.53657283 -40.34765625 160.54284668 C-46.87767372 160.55011772 -53.40751005 160.54054976 -59.9375 160.52148438 C-67.48005185 160.49971654 -75.02217116 160.5067683 -82.56471252 160.52879 C-89.04813837 160.54695959 -95.53143423 160.54949474 -102.01487732 160.53903532 C-105.88385098 160.53280891 -109.75262153 160.53194111 -113.62158203 160.54518127 C-117.25956402 160.55676204 -120.89699 160.54867426 -124.53491211 160.52560425 C-126.50178265 160.51781847 -128.46870039 160.52965409 -130.43554688 160.54211426 C-141.17471866 160.43924863 -141.17471866 160.43924863 -146 156 C-149.62833663 152.18069828 -150.31000458 149.11720994 -150.5 144 C-150.31000458 138.88279006 -149.62833663 135.81930172 -146 132 C-140.51131373 127.19149457 -135.57826395 127.45162835 -128.48681641 127.54589844 C-127.33501892 127.54531433 -126.18322144 127.54473022 -124.996521 127.54412842 C-121.19789258 127.54691016 -117.40005347 127.57800833 -113.6015625 127.609375 C-110.96455311 127.61683702 -108.32753816 127.62253013 -105.69052124 127.62652588 C-99.46445855 127.63893837 -93.23867815 127.67173619 -87.01273954 127.71192384 C-79.92208603 127.75669566 -72.83141876 127.77864212 -65.740659 127.79870558 C-51.16029398 127.84047064 -36.58015094 127.91078881 -22 128 C-22.00368717 127.39739035 -22.00737434 126.79478069 -22.01117325 126.17391014 C-22.09956793 111.50100423 -22.16573081 96.82811406 -22.20724869 82.1550045 C-22.22786092 75.0591309 -22.25595559 67.96343519 -22.30175781 60.86767578 C-22.34593318 54.02068012 -22.36913385 47.17386946 -22.37950897 40.32674026 C-22.38690336 37.71363032 -22.40134268 35.10053056 -22.42292023 32.48749924 C-22.45192977 28.8291711 -22.45595684 25.17160813 -22.45410156 21.51318359 C-22.46848267 20.4313681 -22.48286377 19.34955261 -22.49768066 18.23495483 C-22.46424795 12.1479958 -22.05959227 8.63383658 -18 4 C-12.72867143 -1.00776214 -6.89190982 -0.92775709 0 0 Z " fill="#000000" transform="translate(198,48)"/>
</svg>
