<?xml version="1.0" standalone="no"?>
<!DOCTYPE svg PUBLIC "-//W3C//DTD SVG 20010904//EN"
 "http://www.w3.org/TR/2001/REC-SVG-20010904/DTD/svg10.dtd">
<svg version="1.0" xmlns="http://www.w3.org/2000/svg"
 width="512.000000pt" height="512.000000pt" viewBox="0 0 512.000000 512.000000"
 preserveAspectRatio="xMidYMid meet">

<g transform="translate(0.000000,512.000000) scale(0.100000,-0.100000)"
fill="#000000" stroke="none">
<path d="M2388 5110 c-103 -13 -270 -58 -372 -99 -181 -74 -338 -183 -483
-335 -190 -198 -304 -418 -365 -700 -29 -135 -31 -397 -4 -531 56 -285 178
-521 370 -723 207 -216 468 -358 771 -418 136 -27 396 -25 535 5 137 29 233
62 353 122 146 72 239 140 368 269 210 209 327 426 391 724 31 145 31 407 0
552 -61 282 -175 502 -365 700 -268 281 -603 430 -987 439 -80 2 -175 0 -212
-5z m328 -301 c360 -50 680 -280 842 -604 159 -318 161 -670 8 -990 -115 -239
-286 -410 -527 -524 -499 -238 -1093 -76 -1408 383 -18 26 -55 93 -81 149
-147 309 -146 650 4 962 165 345 493 581 871 628 66 8 218 6 291 -4z"/>
<path d="M2517 4535 c-21 -7 -48 -21 -59 -32 -25 -22 -48 -73 -48 -106 0 -19
-11 -29 -51 -47 -68 -32 -151 -123 -180 -197 -32 -80 -33 -226 -1 -295 47
-104 142 -174 354 -259 75 -30 132 -59 146 -75 47 -54 18 -151 -59 -192 -63
-34 -154 -26 -252 22 -81 41 -117 44 -167 17 -51 -27 -80 -74 -80 -131 0 -32
7 -58 23 -80 28 -43 114 -95 200 -121 64 -20 67 -22 67 -52 0 -70 66 -127 145
-127 82 0 138 51 151 138 6 39 11 45 56 68 198 100 294 363 205 557 -55 122
-124 178 -292 242 -147 55 -225 100 -225 130 0 44 19 76 55 90 52 22 94 18
164 -16 87 -42 146 -38 199 14 30 30 36 44 40 91 7 81 -23 123 -122 171 -69
33 -74 37 -80 74 -14 88 -106 145 -189 116z"/>
<path d="M4503 2155 c-123 -27 -164 -58 -482 -367 l-295 -287 -53 58 c-63 70
-131 116 -216 144 -58 20 -87 21 -486 25 l-425 3 -58 54 c-158 146 -366 252
-590 301 -101 22 -295 29 -400 15 -161 -21 -349 -83 -461 -152 l-47 -29 -432
0 c-411 0 -434 -1 -473 -20 -26 -13 -49 -34 -63 -59 l-22 -39 0 -713 c0 -796
-3 -758 69 -806 l34 -23 444 0 445 0 641 -130 641 -130 678 0 c650 0 680 1
716 19 21 11 329 312 698 683 635 636 663 666 698 738 97 201 60 427 -93 581
-123 123 -294 172 -468 134z m193 -304 c101 -46 149 -161 109 -259 -11 -26
-206 -227 -643 -664 l-627 -628 -615 0 -615 0 -445 91 c-245 50 -497 101 -560
113 l-115 23 -3 580 -2 580 64 31 c358 171 779 97 1081 -189 40 -38 88 -76
108 -84 30 -13 105 -15 459 -15 437 0 476 -3 531 -42 52 -37 67 -85 67 -208
l0 -110 -613 0 -614 0 -43 -23 c-57 -30 -83 -77 -77 -140 5 -57 30 -95 78
-119 31 -17 88 -18 749 -18 696 0 716 1 748 20 62 38 72 69 72 219 l0 134 268
261 c443 433 448 437 489 451 53 19 101 18 149 -4z m-3816 -761 l0 -530 -290
0 -290 0 0 530 0 530 290 0 290 0 0 -530z"/>
</g>
</svg>
