<?xml version="1.0" standalone="no"?>
<!DOCTYPE svg PUBLIC "-//W3C//DTD SVG 20010904//EN"
 "http://www.w3.org/TR/2001/REC-SVG-20010904/DTD/svg10.dtd">
<svg version="1.0" xmlns="http://www.w3.org/2000/svg"
 width="512.000000pt" height="512.000000pt" viewBox="0 0 512.000000 512.000000"
 preserveAspectRatio="xMidYMid meet">

<g transform="translate(0.000000,512.000000) scale(0.100000,-0.100000)"
fill="#000000" stroke="none">
<path d="M352 4833 c-62 -30 -96 -114 -78 -190 5 -19 185 -206 574 -595 l567
-568 -265 0 c-287 0 -400 -9 -497 -41 -177 -58 -304 -204 -359 -414 -17 -62
-19 -112 -19 -465 0 -442 2 -462 73 -610 41 -88 136 -189 219 -233 107 -57
180 -68 508 -77 336 -9 396 -19 501 -80 40 -24 155 -130 354 -325 318 -313
432 -411 552 -475 179 -95 346 -85 471 30 128 117 171 277 187 695 5 138 9
252 10 255 0 3 327 -322 728 -721 400 -400 737 -732 749 -738 57 -29 156 -3
195 51 23 33 34 101 24 145 -5 20 -649 671 -2164 2186 -1186 1187 -2169 2165
-2184 2173 -36 19 -105 18 -146 -3z m1902 -2192 l579 -579 -7 -348 c-7 -381
-17 -505 -47 -606 -26 -89 -50 -108 -112 -84 -81 31 -224 153 -517 442 -302
297 -367 351 -498 411 -128 59 -218 73 -557 82 -191 6 -313 13 -335 21 -85 31
-138 102 -159 215 -14 78 -14 652 0 730 21 113 73 184 159 215 24 9 145 15
390 20 340 7 358 9 435 33 44 13 82 25 85 26 3 0 266 -260 584 -578z"/>
<path d="M2640 4417 c-126 -30 -246 -110 -462 -310 -161 -149 -184 -176 -197
-225 -29 -109 64 -214 175 -197 41 6 60 20 200 150 188 176 243 221 313 253
l54 25 23 -27 c25 -28 39 -72 55 -165 13 -75 28 -441 29 -679 0 -209 5 -231
56 -271 66 -52 155 -47 212 12 45 46 52 81 52 252 -1 440 -25 750 -67 880 -72
225 -250 346 -443 302z"/>
<path d="M4192 3553 c-49 -24 -75 -68 -80 -132 -4 -66 0 -73 106 -191 384
-429 418 -999 86 -1450 -61 -83 -77 -124 -69 -169 20 -108 122 -165 218 -123
62 28 157 156 242 327 69 139 102 230 131 366 27 121 27 430 0 544 -66 284
-188 519 -382 733 -37 41 -81 83 -98 93 -38 23 -109 24 -154 2z"/>
<path d="M3577 3136 c-77 -28 -112 -81 -105 -160 4 -43 14 -65 62 -134 127
-180 173 -386 130 -577 -35 -154 -29 -202 28 -250 66 -56 158 -52 216 9 88 92
116 407 57 641 -42 169 -169 394 -255 456 -35 25 -88 31 -133 15z"/>
</g>
</svg>
