<?xml version="1.0" standalone="no"?>
<!DOCTYPE svg PUBLIC "-//W3C//DTD SVG 20010904//EN"
 "http://www.w3.org/TR/2001/REC-SVG-20010904/DTD/svg10.dtd">
<svg version="1.0" xmlns="http://www.w3.org/2000/svg"
 width="512.000000pt" height="512.000000pt" viewBox="0 0 512.000000 512.000000"
 preserveAspectRatio="xMidYMid meet">

<g transform="translate(0.000000,512.000000) scale(0.100000,-0.100000)"
fill="#000000" stroke="none">
<path d="M2635 4420 c-73 -13 -200 -80 -306 -162 -51 -39 -228 -204 -394 -367
-201 -198 -320 -307 -359 -331 -104 -61 -165 -71 -501 -81 -165 -4 -321 -13
-346 -18 -223 -48 -372 -197 -435 -436 -17 -62 -19 -112 -19 -465 0 -442 2
-462 73 -610 41 -88 136 -189 219 -233 107 -57 180 -68 508 -77 336 -9 396
-19 501 -80 40 -24 155 -130 354 -325 318 -313 432 -411 552 -475 265 -141
510 -42 602 245 54 170 66 444 66 1555 0 1111 -12 1385 -66 1555 -71 221 -246
340 -449 305z m102 -325 c14 -10 30 -41 42 -78 43 -140 46 -237 46 -1457 0
-1220 -3 -1317 -46 -1457 -13 -42 -28 -68 -45 -79 -22 -15 -28 -15 -67 0 -81
31 -224 153 -517 442 -302 297 -367 351 -498 411 -128 59 -218 73 -557 82
-191 6 -313 13 -335 21 -85 31 -138 102 -159 215 -14 78 -14 652 0 730 21 113
74 184 159 215 22 8 144 15 335 21 339 9 429 23 557 82 131 60 196 114 498
411 285 282 421 399 505 437 49 23 55 23 82 4z"/>
<path d="M4217 3776 c-22 -8 -50 -24 -63 -37 -55 -52 -58 -155 -5 -217 211
-251 322 -477 366 -747 19 -116 19 -315 0 -433 -39 -242 -157 -494 -320 -686
-70 -84 -85 -110 -85 -159 0 -107 91 -180 195 -157 31 7 54 24 100 73 197 210
356 526 417 830 33 162 33 472 0 634 -46 231 -147 465 -281 659 -75 109 -182
230 -209 238 -49 14 -81 14 -115 2z"/>
<path d="M3570 3349 c-60 -24 -100 -85 -100 -152 0 -35 10 -59 54 -129 62 -97
96 -172 128 -285 32 -113 32 -333 0 -446 -32 -113 -66 -188 -128 -285 -45 -72
-54 -93 -54 -132 0 -116 116 -189 222 -142 37 16 55 35 102 104 141 213 201
414 201 678 0 264 -66 483 -207 686 -70 102 -139 134 -218 103z"/>
</g>
</svg>
